<svg clip-rule="evenodd" fill-rule="evenodd" stroke-linejoin="round" stroke-miterlimit="2" viewBox="0 0 512 513" xmlns="http://www.w3.org/2000/svg" xmlns:xlink="http://www.w3.org/1999/xlink"><clipPath id="_clip1"><path clip-rule="evenodd" d="m0 .75h512v512h-512z"/></clipPath><g clip-path="url(#_clip1)"><g><path d="m251.84 132.74h50.239c-2.77-3.266-4.441-7.492-4.441-12.106 0-10.34 8.395-18.735 18.735-18.735s18.735 8.395 18.735 18.735c0 4.614-1.671 8.84-4.441 12.106h50.239v50.239c-3.267-2.77-7.493-4.441-12.106-4.441-10.341 0-18.736 8.395-18.736 18.735 0 .733.043 1.457.125 2.168.865 7.498 6.164 13.653 13.205 15.774-16.087 4.194-29.108 8.713-29.108 14.241 0 8.033 22.228 8.472 46.62 5.388v26.962h-50.239c2.77 3.266 4.441 7.492 4.441 12.106 0 10.34-8.395 18.735-18.735 18.735s-18.735-8.395-18.735-18.735c0-4.614 1.671-8.84 4.441-12.106h-50.239v-50.239c3.266 2.77 7.493 4.441 12.106 4.441 10.341 0 18.736-8.395 18.736-18.735s-8.395-18.735-18.736-18.735c-4.613 0-8.84 1.671-12.106 4.441z" fill="#8ba4ab"/><path d="m478.318 152.841c7.521 26.338 2.278 53.399 9.39 101.1.139.934-.012 1.817-.417 2.646-5.559 11.393-58.997 12.761-66.088 0-.457-.823-.851-1.707-.768-2.646.791-8.892.772-17.93 0-26.886-11.498 3.225-25.854 6.061-39.529 7.789-24.392 3.084-46.62 2.645-46.62-5.388 0-5.528 13.021-10.047 29.108-14.241-7.041-2.121-12.34-8.276-13.205-15.774 13.129-2.993 27.277-10.836 30.121-12.229 16.356-8.015 19.635-27.933 26.011-40.537 7.096-14.028 57.246-26.309 65.593-10.021 2.807 5.478 4.871 10.817 6.404 16.187z" fill="#f5af1a"/><path d="m447.435 300.939s12.312 211.811 28.597 211.811 19.058-157.758 18.85-204.582c-.081-18.144-7.591-51.581-7.591-51.581-5.559 11.393-58.997 12.761-66.088 0 0 0-5.499 20.12-4.477 44.352 2.305 54.621 1.112 167.538 16.805 167.538 9.578 0 13.904-167.538 13.904-167.538z" fill="#3b323b"/><path d="m91.565 227.201c-.772 8.956-.791 17.848 0 26.74.083.939-.311 1.823-.768 2.646-7.091 12.761-60.529 11.393-66.088 0-.405-.829-.556-1.712-.417-2.646 7.112-47.701 1.869-74.762 9.39-101.1 1.533-5.37 3.597-10.709 6.404-16.187 8.347-16.288 58.497-4.007 65.593 10.021 4.771 9.431 7.807 24.84 15.885 35.359-3.07-2.2-6.833-3.496-10.895-3.496-10.341 0-18.735 8.395-18.735 18.735 0 .599.028 1.192.083 1.777 2.399 1.284 4.938 2.37 7.527 3.318 23.791 8.71 78.17 15.79 78.17 27.088 0 10.192-27.534 9.489-54.939 4.832-11.025-1.873-22.028-4.386-31.21-7.087z" fill="#8ba4ab"/><path d="m121.564 182.034c.417.299.821.614 1.211.945v-50.239h50.238c-2.769 3.266-4.441 7.493-4.441 12.106 0 10.341 8.395 18.736 18.736 18.736 10.34 0 18.735-8.395 18.735-18.736 0-4.613-1.672-8.84-4.441-12.106h50.238v50.239c3.266-2.77 7.493-4.441 12.106-4.441 10.341 0 18.736 8.395 18.736 18.735s-8.395 18.735-18.736 18.735c-4.613 0-8.84-1.671-12.106-4.441v50.239h-50.238c2.769-3.267 4.441-7.493 4.441-12.107 0-10.34-8.395-18.735-18.735-18.735-10.341 0-18.736 8.395-18.736 18.735 0 4.614 1.672 8.84 4.441 12.107h-50.238v-27.518c27.405 4.657 54.939 5.36 54.939-4.832 0-11.298-54.379-18.378-78.17-27.088-2.589-.948-5.128-2.034-7.527-3.318-.055-.585-.083-1.178-.083-1.777 0-10.34 8.394-18.735 18.735-18.735 4.062 0 7.825 1.296 10.895 3.496z" fill="#f5af1a"/><path d="m64.565 300.939s-12.312 211.811-28.597 211.811-19.058-157.758-18.85-204.582c.081-18.144 7.591-51.581 7.591-51.581 5.559 11.393 58.997 12.761 66.088 0 0 0 5.499 20.12 4.477 44.352-2.305 54.621-1.112 167.538-16.805 167.538-9.578 0-13.904-167.538-13.904-167.538z" fill="#3b323b"/><path d="m451.169 89.302s39.015-33.617 7.164-67.828c-31.852-34.211-70.781-.651-92.606-4.749 0 0-13.052 26.325 20.017 22.025 0 0 28.35.995 31.89 19.877 3.539 18.882 33.535 30.675 33.535 30.675z" fill="#3b323b"/><path d="m385.744 38.75c-3.197 5.916-5.012 12.686-5.012 19.877 0 23.127 18.776 41.903 41.903 41.903 11.019 0 21.051-4.263 28.534-11.228 0 0-29.996-11.793-33.535-30.675-3.54-18.882-31.89-19.877-31.89-19.877z" fill="#f7987a"/><path d="m66.166 93.726s-40.574-25.086-19.018-69.057 97.375-20.157 78.793 14.081c0 0-8.329 16.36-36.89 14.911-28.561-1.45-22.885 40.065-22.885 40.065z" fill="#3b323b"/><path d="m66.166 93.726c6.581 4.302 14.443 6.804 22.885 6.804 23.126 0 41.902-18.776 41.902-41.903 0-7.191-1.815-13.961-5.012-19.877 0 0-8.329 16.36-36.89 14.911-28.561-1.45-22.885 40.065-22.885 40.065z" fill="#f7987a"/><g fill="#695f6a"><path d="m35.814 507.681c.219-2.229 16.183-164.818 17.557-183.872 1.337-18.54 7.205-24.409 7.598-24.784-.263.5-.426 1.062-.461 1.658 0 0-7.835 135.127-19.288 189.177-1.63 7.691-3.289 13.665-5.058 17.203-.101.201-.222.413-.348.618z"/><path d="m81.285 266.953c.593-.17 1.171-.349 1.732-.536 1.979-.658 3.758-1.435 5.309-2.31 1.498 7.649 3.535 21.297 2.888 36.641-1.609 38.127-1.491 104.74-6.654 141.276-1.14 8.067-2.493 14.597-4.248 18.859.09-2.12 6.758-158.994 4.948-173.076-.706-5.49-2.717-15.151-3.947-20.842 0 0-.01-.004-.028-.012z"/><path d="m432.429 462.332c-.536-25.873 4.654-135.345 4.893-147.789.228-11.851 6.579-16.066 7.187-16.443-.682.709-1.11 1.663-1.136 2.714 0 0-2.749 106.897-8.742 149.656-.692 4.937-1.42 8.987-2.202 11.862z"/><path d="m475.666 267.328c3.023-.727 5.718-1.612 7.926-2.641.397-.185.78-.376 1.15-.572 2.155 10.542 6.019 31.198 6.076 44.051.166 37.284-1.526 145.237-10.524 186.926-1.049 4.856-2.173 8.756-3.443 11.433-.185.391-.427.798-.661 1.158 2.603-48.067 7.957-181.184 6.257-203.828-.695-9.254-4.635-27.254-6.763-36.512z"/></g><path d="m427.59 257.088c47.637 4.768 46.879-16.411 46.879-16.411h-9.574l13.241-10.985-32.008 9.174 26.235-16.468c-1.532-14.362 5.773-47.11 5.773-47.11-.415 1.213-.863 2.446-1.344 3.695-6.529 16.97-19.067 36.795-38.687 46.123-3.485 1.657-8.068 3.319-13.369 4.907 0-.006-.001-.013-.001-.019 5.301-1.588 9.884-3.25 13.37-4.907 19.62-9.329 32.158-29.154 38.687-46.123.481-1.249.929-2.483 1.344-3.696 1.827 20.568.351 44.362 5.553 79.253.014.094-.008.182-.049.265-.281.576-.876 1.029-1.593 1.501-1.174.773-2.675 1.442-4.407 2.039-5.949 2.05-14.377 3.139-22.865 3.236-8.477.097-17.025-.793-23.227-2.856-1.486-.494-2.835-1.015-3.958-1.618z" fill="#eddf53"/><path d="m338.437 229.636c-.027-.035-.046-.061-.059-.077-.004-.008-.007-.015-.011-.023 40.097.432 88.055-14.334 97.465-22.968 5.601-5.138 32.659-37.596 24.895-55.772-8.487-19.867-46.006-7.122-46.006-7.122-2.222 1.521-3.91 3.128-4.774 4.835-3.179 6.284-5.581 14.392-9.232 21.927-4.049 8.357-9.573 15.993-18.617 20.425-2.641 1.294-14.777 7.964-27.051 11.515-.002-.006-.004-.012-.006-.018 12.276-3.55 24.415-10.222 27.057-11.517 9.044-4.432 14.568-12.068 18.617-20.424 3.651-7.535 6.053-15.643 9.232-21.927 1.414-2.795 5.036-5.321 9.593-7.641 7.812-3.976 18.416-6.936 28.05-7.713 5.125-.413 9.968-.219 13.905.859 3.095.847 5.611 2.167 6.802 4.493 2.616 5.105 4.557 10.083 6.009 15.086.315 4.229-1.372 12.787-5.098 22.471-5.877 15.273-16.934 33.306-34.592 41.702-10.916 5.19-33.097 10.383-53.777 13.015-.303.005-.597.043-.881.111-10.283 1.275-20.147 1.905-28.014 1.574-4.714-.199-8.658-.72-11.415-1.753-.611-.229-1.149-.479-1.595-.771-.177-.115-.383-.177-.497-.287z" fill="#eddf53"/><path d="m359.946 208.952c7.632-2.143 35.538-10.191 42.584-15.26 5.874-4.225 8.334-10.435 9.255-13.607-.51 4.062-.008 11.992.752 17.888-.491.192-.983.379-1.478.56-11.768 4.308-31.019 8.219-47.474 12.438-1.314-.5-2.537-1.184-3.639-2.019z" fill="#eddf53"/><path d="m414.375 178.811c2.339 2.157 6.601 6.469 6.941 9.529 0 0 9.419-6.108 10.985-17.721.468 12.182-5.013 19.242-12.445 23.788-1.462-5.854-3.709-12.728-5.481-15.596z" fill="#eddf53"/><path d="m407.973 21.51c16.419-13.356 41.531-1.559 47.692 12.777 0 0-3.916-4.408-10.972-8.395 0 0 9.825 8.734 10.99 19.289 0 0-13.462-22.272-36.07-18.709 0 0 6.933-3.868 12.484-3.068-6.129-5.555-15.317-5.143-24.124-1.894z" fill="#695f6a"/><path d="m57.829 27.919c7.541-19.777 35.188-22.116 47.691-12.781 0 0-5.595-1.86-13.699-1.785 0 0 12.875 2.651 19.162 11.209 0 0-22.794-12.557-40.593 1.833 0 0 4.071-6.816 9.278-8.899-8.086-1.746-15.836 3.204-21.839 10.423z" fill="#695f6a"/><path d="m77.814 94.748c-5.435-26.071 6.776-29.705 6.776-29.705 27.447.832 37.83-9.04 41.445-14.463.56 2.588.855 5.274.855 8.028 0 20.884-16.955 37.839-37.839 37.839-3.912 0-7.687-.595-11.237-1.699z" fill="#fbbd9c"/><path d="m173.376 229.137c-15.693-1.256-69.823-6.488-93.333-20.392-13.302-7.867-22.6-17.247-27.952-52.633-5.353-35.385 46.239-11.701 46.239-11.701 1.704 1.295 3.001 2.652 3.723 4.079 3.496 6.911 6.129 16.951 10.392 26.033-.586-.045-1.179-.068-1.776-.068-10.509 0-19.367 7.125-22.001 16.804-4.683-4.543-7.833-11.01-8.968-20.66-4.905 5.287-3.197 22.586 4.773 28.502 4.064 3.017 8.778 5.271 13.674 7.064 16.648 6.094 48.281 11.389 65.762 17.893 3.355 1.248 6.144 2.514 8.078 3.879.56.395 1.033.785 1.386 1.196.001.002.002.003.003.004z" fill="#aabbc2"/><path d="m28.523 255.061c40.911 7.384 37.184-8.603 37.184-8.603h-9.453l16.618-6.851h-32.036l24.871-6.851c.599-4.415-2.579-7.308-2.579-7.308-22.685-15.529-29.264-50.18-29.264-50.18.415 1.213.863 2.447 1.344 3.696 6.529 16.969 19.067 36.794 38.687 46.123 3.486 1.657 8.07 3.361 13.372 5.016-.531 8.018-.466 15.992.232 23.965-.056.124-.174.383-.254.526-1.036 1.866-3.598 3.049-6.793 4.112-6.202 2.063-14.75 2.953-23.227 2.856-8.488-.097-16.916-1.186-22.865-3.236-1.732-.597-3.233-1.266-4.407-2.039-.599-.395-1.113-.776-1.43-1.226z" fill="#aabbc2"/><path d="m386.435 47.562c6.668 1.054 17.093 3.766 19.435 10.533 3.508 10.134 4.361 23.207 24.661 30.515 3.303 1.189 5.658 2.813 7.31 4.652-4.654 2.048-9.799 3.185-15.206 3.185-20.884 0-37.839-16.955-37.839-37.839 0-3.842.573-7.551 1.639-11.046z" fill="#fbbd9c"/><path d="m278.167 200.875c-7.314 6.756-15.268 2.296-21.66.217-7.885-2.566-8.651 8.416-8.723 10.211-.005.081-.007.163-.007.245v44.804l-7.81-7.81h-29.889c-.594-12.055-10.569-21.661-22.77-21.661-1.987 0-3.915.255-5.752.733-.435-1.763-1.519-3.509-3.365-5.128-2.401-2.105-6.377-4.158-11.448-6.045-7.964-2.963-18.861-5.676-29.943-8.327v-61.368l-9.962-9.962h39.132c-.944 2.502-1.461 5.213-1.461 8.043 0 12.583 10.216 22.799 22.799 22.799 12.582 0 22.798-10.216 22.798-22.799 0-2.83-.517-5.541-1.461-8.043h39.132v46.175c0 1.583.919 3.022 2.355 3.688 1.437.665 3.129.435 4.336-.588 2.557-2.169 5.866-3.477 9.478-3.477 8.098 0 14.672 6.574 14.672 14.672 0 1.249-.157 2.462-.451 3.621z" fill="#eddf53"/><path d="m164.537 248.542h-27.737v-8.186c8.671.996 16.849 1.452 23.616 1.139 2.067-.096 4.012-.27 5.817-.52-.974 2.351-1.565 4.899-1.696 7.567z" fill="#eddf53"/><path d="m305.887 134.137 8.233 2.647c2.621-2.261 0-7.89 0-7.89-14.126-11.167-5.197-20.919-5.197-20.919 2.184-1.291 4.731-2.032 7.45-2.032 8.097 0 14.672 6.574 14.672 14.672 0 3.612-1.309 6.921-3.477 9.478-1.024 1.207-1.253 2.899-.588 4.336.665 1.436 2.104 2.355 3.687 2.355h46.175v39.132c-2.502-.944-5.212-1.461-8.042-1.461-12.583 0-22.799 10.216-22.799 22.799 0 .887.051 1.763.15 2.624l.001.01c.632 5.47 3.202 10.354 7.006 13.944-2.849.851-5.507 1.718-7.901 2.609-5.071 1.887-9.047 3.94-11.448 6.045-2.481 2.175-3.587 4.581-3.587 6.951 0 3.213 1.689 5.96 5.279 7.89 3.401 1.828 9.037 2.942 16.1 3.24 7.188.303 15.968-.17 25.241-1.192v18.348l-9.714-9.201h-29.987l-6.474 9.201c-1.583 0-3.022.919-3.687 2.355-.665 1.437-.436 3.129.588 4.336 2.168 2.557 3.477 5.866 3.477 9.478 0 6.572-4.33 12.14-10.291 14.006-6.515-2.183-10.871-7.212-11.831-12.158-1.689-8.705 5.197-14.681 5.197-14.681 0-13.771-15.59-12.537-15.59-12.537h-32.416v-28.572c11.568-1.093 20.631-10.845 20.631-22.696 0-11.852-9.063-21.604-20.631-22.697v-27.659l-10.114-10.114h46.079c1.583 0 3.022-.919 3.687-2.355.044-.096.085-.194.121-.292z" fill="#aabbc2"/><path d="m355.443 150.376c-1.168 0-2.116-.948-2.116-2.116s.948-2.117 2.116-2.117h4.222c1.168 0 2.117.949 2.117 2.117s-.949 2.116-2.117 2.116zm-53.591 0c-1.168 0-2.117-.948-2.117-2.116s.949-2.117 2.117-2.117h36.377c1.168 0 2.116.949 2.116 2.117s-.948 2.116-2.116 2.116z" fill="#fff"/><path d="m92.411 152.067c-1.036-.539-1.439-1.818-.9-2.855.539-1.036 1.818-1.439 2.854-.9.459.239.907.487 1.346.744 1.008.591 1.346 1.888.756 2.896-.591 1.008-1.889 1.346-2.896.756-.378-.222-.765-.435-1.16-.641zm-31.448-1.839c-1.086.43-2.317-.103-2.747-1.19-.429-1.086.104-2.316 1.19-2.746 7.423-2.937 17.803-3.343 26.84-1.027 1.132.29 1.815 1.445 1.525 2.576-.29 1.132-1.444 1.815-2.576 1.525-8.158-2.091-17.531-1.789-24.232.862z" fill="#fff"/></g></g></svg>