<svg clip-rule="evenodd" fill-rule="evenodd" stroke-linejoin="round" stroke-miterlimit="2" viewBox="0 0 510 510" xmlns="http://www.w3.org/2000/svg"><g><g><g><path d="m251.461 89.994h26.178v130.736h-26.178z" fill="#9facba"/><path d="m267.639 89.994h10v130.736h-10z" fill="#8d9ca8"/><path d="m371.253 49.397c0-19.087-15.497-34.584-34.584-34.584h-144.239c-19.087 0-34.584 15.497-34.584 34.584v69.167c0 19.088 15.497 34.584 34.584 34.584h144.239c19.087 0 34.584-15.496 34.584-34.584z" fill="#eceff1"/><path d="m163.494 137.501c5.441 3.57 11.948 5.647 18.936 5.647h144.239c19.087 0 34.584-15.496 34.584-34.584v-69.167c0-6.988-2.077-13.495-5.648-18.936 9.421 6.181 15.648 16.837 15.648 28.936v69.167c0 19.088-15.497 34.584-34.584 34.584h-144.239c-12.099 0-22.755-6.227-28.936-15.647z" fill="#d1d1d6"/><path d="m347.776 107.499-29.524 24.046c-.559.447-1.282.548-1.946.257-.653-.29-1.061-.894-1.061-1.587v-11.201h-38.778c-2.005 0-3.636-1.566-3.636-3.488v-18.714c0-1.923 1.631-3.488 3.636-3.488h38.778v-11.201c0-.694.408-1.297 1.061-1.588.664-.29 1.387-.19 1.946.257l29.524 24.046c.419.347.641.794.641 1.331 0 .525-.222.984-.641 1.33z" fill="#8ac9fe"/><path d="m345.822 103.248 1.954 1.59c.419.347.641.794.641 1.331 0 .525-.222.984-.641 1.33l-29.524 24.046c-.559.447-1.282.548-1.946.257-.653-.29-1.061-.894-1.061-1.587v-5.843c0 .694.408 1.297 1.061 1.588.664.291 1.387.19 1.946-.257zm-30.577 15.766h-38.778c-2.005 0-3.636-1.566-3.636-3.488v-5.843c0 1.923 1.631 3.488 3.636 3.488h38.778z" fill="#60b7ff"/><path d="m185.93 65.526 29.524 24.046c.559.447 1.282.548 1.946.257.653-.29 1.061-.894 1.061-1.587v-11.202h38.778c2.005 0 3.637-1.565 3.637-3.487v-18.714c0-1.923-1.632-3.488-3.637-3.488h-38.778v-11.202c0-.693-.408-1.296-1.061-1.587-.664-.291-1.387-.19-1.946.257l-29.524 24.046c-.419.347-.641.794-.641 1.331 0 .525.222.983.641 1.33z" fill="#ffe177"/><path d="m218.461 44.121c0-.693-.408-1.297-1.061-1.587-.664-.291-1.387-.19-1.946.257l-28.719 23.39-.805-.655c-.419-.347-.641-.805-.641-1.33 0-.537.222-.984.641-1.331l29.524-24.046c.559-.447 1.282-.548 1.946-.257.653.291 1.061.894 1.061 1.587zm42.415 14.689c0-1.922-1.632-3.488-3.637-3.488h-38.778v-3.971h38.778c2.005 0 3.637 1.565 3.637 3.488z" fill="#ffd064"/></g><g><path d="m358.307 333.441h98.536c10.12 0 19.826 4.02 26.982 11.177 7.156 7.156 11.177 16.862 11.177 26.982v123.213h-173.786v-120.183c0-3.655-1.603-7.127-4.385-9.498-13.238-11.284-52.86-45.054-68.627-58.491-4.173-3.557-6.577-8.765-6.577-14.248 0-22.08 0-78.837 0-78.837 0-6.172 2.452-12.092 6.817-16.456 4.364-4.365 10.284-6.817 16.456-6.817h.004c6.173 0 12.092 2.452 16.457 6.817 4.364 4.364 6.816 10.284 6.816 16.456v57.349c0 5.483 2.404 10.69 6.577 14.247 12.605 10.743 39.929 34.031 51.409 43.816 3.388 2.887 7.693 4.473 12.144 4.473z" fill="#8ac9fe"/><ellipse cx="390.351" cy="261.741" fill="#f6dccd" rx="44.91" ry="46.342"/><path d="m385.351 215.683c1.642-.188 3.31-.284 5-.284 24.787 0 44.91 20.765 44.91 46.342s-20.123 46.342-44.91 46.342c-1.69 0-3.358-.097-5-.285 22.437-2.569 39.91-22.224 39.91-46.057s-17.473-43.488-39.91-46.058z" fill="#f1cbbc"/></g><g><path d="m15.028 491.981c-.118.802.119 1.616.649 2.23s1.301.967 2.112.967c18.368.009 110.647.009 129.01.009.814 0 1.587-.354 2.118-.97.532-.615.77-1.431.652-2.236-5.066-32.596-33.25-57.545-67.276-57.545-34.007 0-62.19 24.948-67.265 57.545z" fill="#ffe177"/><path d="m137.642 495.187c.814 0 1.587-.354 2.118-.97.532-.615.77-1.431.652-2.236-4.836-31.121-30.747-55.273-62.696-57.394 1.513-.1 3.039-.151 4.577-.151 34.026 0 62.21 24.949 67.276 57.545.118.805-.12 1.621-.652 2.236-.531.616-1.304.97-2.118.97-2.132 0-5.262 0-9.157 0z" fill="#ffd064"/><path d="m82.293 434.436c18.974 0 34.425-15.469 34.425-34.425 0-18.955-15.451-34.424-34.425-34.424-18.955 0-34.406 15.469-34.406 34.424 0 18.956 15.451 34.425 34.406 34.425z" fill="#f6dccd"/><path d="m80.005 434.36c17.911-1.185 32.134-16.162 32.134-34.349 0-18.186-14.223-33.163-32.134-34.348.757-.05 1.52-.076 2.288-.076 18.974 0 34.425 15.469 34.425 34.424 0 18.956-15.451 34.425-34.425 34.425-.768 0-1.531-.026-2.288-.076z" fill="#f1cbbc"/></g><g><path d="m149.622 491.981c-.118.802.119 1.616.649 2.23s1.301.967 2.112.967c18.368.009 110.647.009 129.01.009.813 0 1.587-.354 2.118-.97.532-.615.77-1.431.652-2.236-5.066-32.596-33.25-57.545-67.276-57.545-34.007 0-62.191 24.948-67.265 57.545z" fill="#8ac9fe"/><path d="m272.236 495.187c.813 0 1.587-.354 2.118-.97.532-.615.77-1.431.652-2.236-4.837-31.121-30.748-55.273-62.696-57.394 1.513-.1 3.039-.151 4.577-.151 34.026 0 62.21 24.949 67.276 57.545.118.805-.12 1.621-.652 2.236-.531.616-1.305.97-2.118.97-2.132 0-5.262 0-9.157 0z" fill="#60b7ff"/><path d="m216.887 434.436c18.974 0 34.425-15.469 34.425-34.425 0-18.955-15.451-34.424-34.425-34.424-18.955 0-34.406 15.469-34.406 34.424 0 18.956 15.451 34.425 34.406 34.425z" fill="#f6dccd"/><path d="m214.599 434.36c17.911-1.185 32.134-16.162 32.134-34.349 0-18.186-14.223-33.163-32.134-34.348.757-.05 1.52-.076 2.288-.076 18.974 0 34.425 15.469 34.425 34.424 0 18.956-15.451 34.425-34.425 34.425-.768 0-1.531-.026-2.288-.076z" fill="#f1cbbc"/></g></g><path d="m243.459 161.335h-51.03c-23.503 0-42.584-19.082-42.584-42.584v-69.167c0-23.503 19.081-42.584 42.584-42.584h144.239c23.502 0 42.583 19.081 42.583 42.584v69.167c0 23.502-19.081 42.584-42.583 42.584h-51.031v28.996c.471.418.931.851 1.379 1.298 5.865 5.865 9.16 13.819 9.16 22.114v57.348c0 3.14 1.376 6.122 3.766 8.159l51.409 43.816c1.94 1.654 4.405 2.562 6.954 2.562h98.536c12.242 0 23.983 4.863 32.639 13.519 8.657 8.657 13.52 20.397 13.52 32.639v123.214c0 4.418-3.582 8-8 8h-173.786c-4.418 0-8-3.582-8-8v-120.184c0-1.312-.575-2.558-1.574-3.409l-68.626-58.491c-5.957-5.077-9.388-12.51-9.388-20.336v-78.837c0-8.295 3.295-16.249 9.16-22.114.221-.221.446-.439.673-.653zm26.178 0h-10.178v21.611c1.784-.315 3.604-.476 5.44-.476h.003c1.595 0 3.178.122 4.735.36zm186.813 325.665h30.55v-115.214c0-7.998-3.177-15.669-8.833-21.325s-13.327-8.833-21.326-8.833h-98.536c-6.353 0-12.498-2.264-17.332-6.385l-51.41-43.816c-5.956-5.077-9.387-12.51-9.387-20.336v-57.348c0-4.051-1.609-7.936-4.474-10.8-2.864-2.864-6.749-4.473-10.799-4.473h-.004c-4.051 0-7.936 1.609-10.8 4.473s-4.473 6.749-4.473 10.8v78.837c0 3.14 1.377 6.122 3.766 8.159l68.627 58.491c4.565 3.891 7.195 9.588 7.195 15.586v112.184h111.236v-101.708c0-4.415 3.585-8 8-8 4.416 0 8 3.585 8 8zm-93.199-437.416c0-14.672-11.911-26.584-26.583-26.584h-144.239c-14.672 0-26.584 11.912-26.584 26.584v69.167c0 14.672 11.912 26.584 26.584 26.584h144.239c14.672 0 26.583-11.912 26.583-26.584zm-10.425 64.305-29.523 24.046c-.019.015-.038.031-.058.046-2.916 2.331-6.684 2.852-10.147 1.337-.016-.007-.032-.014-.048-.021-3.632-1.617-5.806-5.039-5.806-8.896v-3.201h-30.778c-6.506 0-11.637-5.248-11.637-11.488v-18.714c0-6.239 5.131-11.487 11.637-11.487h30.778v-3.202c0-3.856 2.174-7.278 5.806-8.895.016-.008.032-.015.048-.022 3.463-1.515 7.231-.994 10.147 1.338.02.015.039.03.058.046l29.523 24.046c.014.012.029.023.043.035 2.357 1.946 3.546 4.484 3.546 7.498 0 2.952-1.189 5.552-3.546 7.499-.014.011-.029.023-.043.035zm-71.997-12.378v9.689h34.415c3.833 0 7.037 2.696 7.818 6.296l13.678-11.141c-3.927-3.197-9.153-7.454-13.678-11.14-.781 3.599-3.985 6.296-7.818 6.296zm-99.995-29.63c-2.357-1.947-3.546-4.547-3.546-7.499 0-3.014 1.189-5.552 3.546-7.498.014-.012.029-.024.043-.035l29.523-24.046c.019-.016.038-.031.058-.046 2.916-2.332 6.684-2.853 10.147-1.338.016.007.032.014.048.021 3.632 1.618 5.806 5.039 5.806 8.896v3.201h30.778c6.506 0 11.637 5.248 11.637 11.488v18.714c0 6.24-5.131 11.488-11.637 11.488h-30.778v3.201c0 3.857-2.174 7.279-5.806 8.896-.016.007-.032.014-.048.021-3.463 1.515-7.231.994-10.147-1.337-.02-.015-.039-.031-.058-.046l-29.523-24.047c-.014-.011-.029-.023-.043-.034zm16.129-7.499c3.926 3.198 9.153 7.455 13.678 11.141.781-3.6 3.985-6.296 7.818-6.296h34.415v-9.69h-34.415c-3.833 0-7.037-2.696-7.818-6.295-4.533 3.692-9.76 7.949-13.678 11.14zm87.225 438.618h-269.188c-2.27 0-4.434-.965-5.951-2.654s-2.246-3.943-2.003-6.2c3.045-28.357 21.738-52.033 47.27-62.203-8.72-7.746-14.227-19.037-14.227-31.57 0-23.252 18.956-42.226 42.208-42.226 23.273 0 42.226 18.975 42.226 42.226 0 12.534-5.508 23.825-14.231 31.571 17.008 6.774 30.977 19.538 39.307 35.685 8.335-16.148 22.306-28.913 39.311-35.686-8.72-7.746-14.227-19.037-14.227-31.57 0-23.252 18.955-42.226 42.208-42.226 23.273 0 42.226 18.975 42.226 42.226 0 12.534-5.508 23.825-14.231 31.571 25.538 10.172 44.226 33.849 47.256 62.206.241 2.257-.487 4.51-2.005 6.198-1.517 1.688-3.68 2.652-5.949 2.652zm-201.891-60.401c-27.674 0-50.951 18.842-57.708 44.401h115.421c-6.744-25.56-30.025-44.401-57.713-44.401zm0-16c14.455 0 26.226-11.785 26.226-26.226s-11.771-26.226-26.226-26.226c-14.44 0-26.208 11.786-26.208 26.226s11.768 26.226 26.208 26.226zm134.594 16c-27.674 0-50.951 18.842-57.708 44.401h115.42c-6.744-25.56-30.024-44.401-57.712-44.401zm0-16c14.454 0 26.226-11.785 26.226-26.226s-11.772-26.226-26.226-26.226c-14.44 0-26.208 11.786-26.208 26.226s11.768 26.226 26.208 26.226zm173.459-219.014c29.131 0 52.91 24.282 52.91 54.342 0 30.061-23.779 54.343-52.91 54.343-29.132 0-52.91-24.282-52.91-54.343 0-30.06 23.778-54.342 52.91-54.342zm0 16c-20.442 0-36.91 17.249-36.91 38.342 0 21.094 16.468 38.343 36.91 38.343 20.441 0 36.91-17.249 36.91-38.343 0-21.093-16.469-38.342-36.91-38.342z"/></g></svg>