<?xml version="1.0" encoding="UTF-8" standalone="no"?>
<!-- Created with Inkscape (http://www.inkscape.org/) -->

<svg
   version="1.1"
   id="svg3096"
   xml:space="preserve"
   width="682.66669"
   height="682.66669"
   viewBox="0 0 682.66669 682.66669"
   xmlns="http://www.w3.org/2000/svg"
   xmlns:svg="http://www.w3.org/2000/svg"><defs
     id="defs3100"><clipPath
       clipPathUnits="userSpaceOnUse"
       id="clipPath3110"><path
         d="M 0,512 H 512 V 0 H 0 Z"
         id="path3108" /></clipPath></defs><g
     id="g3102"
     transform="matrix(1.3333333,0,0,-1.3333333,0,682.66667)"><g
       id="g3104"><g
         id="g3106"
         clip-path="url(#clipPath3110)"><g
           id="g3112"
           transform="translate(307.7666,69.5757)"><path
             d="m 0,0 h -103.533 v -41.523 c 0,-11.378 9.223,-20.602 20.601,-20.602 h 62.33 C -9.224,-62.125 0,-52.901 0,-41.523 Z"
             style="fill:#eaf6ff;fill-opacity:1;fill-rule:nonzero;stroke:none"
             id="path3114" /></g><g
           id="g3116"
           transform="translate(254.8301,7.4502)"><path
             d="m 0,0 h -30 c -11.37,0 -20.6,9.22 -20.6,20.6 v 41.53 h 30 V 20.6 C -20.6,9.22 -11.37,0 0,0"
             style="fill:#d8ecfe;fill-opacity:1;fill-rule:nonzero;stroke:none"
             id="path3118" /></g><g
           id="g3120"
           transform="translate(318.125,69.6768)"><path
             d="m 0,0 h -124.25 c -8.577,0 -15.53,6.954 -15.53,15.531 0,8.578 6.953,15.531 15.53,15.531 H 0 c 8.577,0 15.53,-6.953 15.53,-15.531 C 15.53,6.954 8.577,0 0,0"
             style="fill:#eaf6ff;fill-opacity:1;fill-rule:nonzero;stroke:none"
             id="path3122" /></g><g
           id="g3124"
           transform="translate(223.8799,69.6802)"><path
             d="m 0,0 h -30 c -8.58,0 -15.54,6.95 -15.54,15.53 0,4.29 1.74,8.17 4.55,10.98 2.81,2.81 6.7,4.55 10.99,4.55 H 0 c -4.29,0 -8.18,-1.74 -10.99,-4.55 C -13.8,23.7 -15.54,19.82 -15.54,15.53 -15.54,6.95 -8.58,0 0,0"
             style="fill:#d8ecfe;fill-opacity:1;fill-rule:nonzero;stroke:none"
             id="path3126" /></g><g
           id="g3128"
           transform="translate(281.8799,209.2402)"><path
             d="m 0,0 c 0,-14.3 -11.58,-25.89 -25.88,-25.89 v -75.32 h -51.769 v 15.16 c 0,9.92 -5.661,19.02 -14.631,23.27 -52.55,24.9 -88.91,78.41 -88.91,140.42 v 0.18 h 51.77 v -0.17 c 0,-14.29 11.59,-25.89 25.88,-25.89 14.3,0 25.891,11.6 25.891,25.89 v 0.17 H -25.88 V 25.88 C -11.58,25.88 0,14.29 0,0"
             style="fill:#aee69c;fill-opacity:1;fill-rule:nonzero;stroke:none"
             id="path3130" /></g><g
           id="g3132"
           transform="translate(224.2305,123.1899)"><path
             d="M 0,0 V -15.16 H -20 V 0 c 0,9.92 -5.66,19.02 -14.631,23.27 -52.55,24.9 -88.91,78.41 -88.91,140.42 v 0.18 h 20 v -0.18 c 0,-62.01 36.36,-115.52 88.91,-140.42 C -5.66,19.02 0,9.92 0,0"
             style="fill:#89daa4;fill-opacity:1;fill-rule:nonzero;stroke:none"
             id="path3134" /></g><g
           id="g3136"
           transform="translate(411.3105,287.0601)"><path
             d="m 0,0 v -0.17 c 0,-61.99 -36.32,-115.49 -88.851,-140.4 -8.99,-4.26 -14.69,-13.35 -14.69,-23.3 v -22.5 h -51.77 v 82.66 c 14.3,0 25.88,11.59 25.88,25.89 0,14.29 -11.58,25.88 -25.88,25.88 V 0 h 51.77 c 0.091,14.22 11.65,25.72 25.891,25.72 14.229,0 25.79,-11.5 25.879,-25.72 z"
             style="fill:#8ac9fe;fill-opacity:1;fill-rule:nonzero;stroke:none"
             id="path3138" /></g><g
           id="g3140"
           transform="translate(411.3105,287.0601)"><path
             d="m 0,0 h -51.771 c -0.089,14.22 -11.65,25.72 -25.879,25.72 -14.241,0 -25.8,-11.5 -25.891,-25.72 h -51.77 v 51.6 c -14.299,0 -25.879,11.59 -25.879,25.89 0,14.3 11.58,25.88 25.879,25.88 v 51.77 C -69.591,155.14 -0.091,85.7 0,0"
             style="fill:#ffe177;fill-opacity:1;fill-rule:nonzero;stroke:none"
             id="path3142" /></g><g
           id="g3144"
           transform="translate(230.1201,364.5498)"><path
             d="m 0,0 c 0,-14.3 11.58,-25.89 25.88,-25.89 v -51.6 h -51.77 v -0.17 c 0,-14.29 -11.59,-25.89 -25.89,-25.89 -14.29,0 -25.88,11.6 -25.88,25.89 v 0.17 h -51.771 C -129.34,8.45 -60.06,77.65 25.88,77.65 V 25.88 C 11.58,25.88 0,14.3 0,0"
             style="fill:#fe646f;fill-opacity:1;fill-rule:nonzero;stroke:none"
             id="path3146" /></g><g
           id="g3148"
           transform="translate(256,442.2002)"><path
             d="m 0,0 v -1.27 c -76.439,-9.75 -135.23,-74.71 -135.311,-153.87 h -20 C -155.22,-69.2 -85.939,0 0,0"
             style="fill:#fd4755;fill-opacity:1;fill-rule:nonzero;stroke:none"
             id="path3150" /></g><g
           id="g3152"
           transform="translate(153.5801,403.8101)"><path
             d="m 0,0 c 27.31,23.92 63.12,38.39 102.42,38.39 44.09,0 83.89,-18.37 112.16,-47.87"
             style="fill:none;stroke:#000000;stroke-width:15;stroke-linecap:round;stroke-linejoin:round;stroke-miterlimit:10;stroke-dasharray:none;stroke-opacity:1"
             id="path3154" /></g><g
           id="g3156"
           transform="translate(388.3096,368.2598)"><path
             d="m 0,0 c 14.561,-23.62 22.971,-51.43 23,-81.2 v -0.17 c 0,-61.99 -36.319,-115.49 -88.85,-140.4 -8.99,-4.26 -14.69,-13.35 -14.69,-23.3 v -22.5 h -103.539 v 22.5 c 0,9.92 -5.66,19.02 -14.631,23.27 -52.55,24.9 -88.909,78.41 -88.909,140.42 v 0.18 c 0.04,34.81 11.43,66.89 30.689,92.72"
             style="fill:none;stroke:#000000;stroke-width:15;stroke-linecap:round;stroke-linejoin:round;stroke-miterlimit:10;stroke-dasharray:none;stroke-opacity:1"
             id="path3158" /></g><g
           id="g3160"
           transform="translate(271.7598,69.6802)"><path
             d="m 0,0 h 46.36 c 4.29,0 8.18,1.74 10.991,4.55 2.809,2.81 4.549,6.69 4.549,10.98 0,8.58 -6.96,15.53 -15.54,15.53 H -77.88 c -4.29,0 -8.18,-1.74 -10.99,-4.55 -2.81,-2.81 -4.55,-6.69 -4.55,-10.98 C -93.42,6.95 -86.46,0 -77.88,0 h 45.2"
             style="fill:none;stroke:#000000;stroke-width:15;stroke-linecap:round;stroke-linejoin:round;stroke-miterlimit:10;stroke-dasharray:none;stroke-opacity:1"
             id="path3162" /></g><g
           id="g3164"
           transform="translate(271.7598,69.5801)"><path
             d="m 0,0 h 36.01 v -19.63 -21.9 c 0,-3.96 -1.119,-7.65 -3.06,-10.79 -3.62,-5.89 -10.12,-9.81 -17.54,-9.81 H 0 -32.68 -46.93 c -7.42,0 -13.92,3.92 -17.54,9.81 -1.94,3.14 -3.059,6.83 -3.059,10.79 V -19.63 0 h 34.849"
             style="fill:none;stroke:#000000;stroke-width:15;stroke-linecap:round;stroke-linejoin:round;stroke-miterlimit:10;stroke-dasharray:none;stroke-opacity:1"
             id="path3166" /></g><g
           id="g3168"
           transform="translate(204.2334,38.4512)"><path
             d="M 0,0 H 103.533"
             style="fill:none;stroke:#000000;stroke-width:15;stroke-linecap:round;stroke-linejoin:round;stroke-miterlimit:10;stroke-dasharray:none;stroke-opacity:1"
             id="path3170" /></g><g
           id="g3172"
           transform="translate(256,287.0625)"><path
             d="m 0,0 h -51.767 v -0.175 c 0,-14.292 -11.591,-25.883 -25.891,-25.883 -14.292,0 -25.883,11.591 -25.883,25.883 V 0 h -51.767"
             style="fill:none;stroke:#000000;stroke-width:15;stroke-linecap:round;stroke-linejoin:round;stroke-miterlimit:10;stroke-dasharray:none;stroke-opacity:1"
             id="path3174" /></g><g
           id="g3176"
           transform="translate(256,287.0625)"><path
             d="m 0,0 v 51.6 c -14.3,0 -25.883,11.591 -25.883,25.883 0,14.3 11.583,25.884 25.883,25.884 v 51.775"
             style="fill:none;stroke:#000000;stroke-width:15;stroke-linecap:round;stroke-linejoin:round;stroke-miterlimit:10;stroke-dasharray:none;stroke-opacity:1"
             id="path3178" /></g><g
           id="g3180"
           transform="translate(256,108.0293)"><path
             d="m 0,0 v 75.325 c 14.3,0 25.883,11.583 25.883,25.883 C 25.883,115.5 14.3,127.092 0,127.092 v 51.941"
             style="fill:none;stroke:#000000;stroke-width:15;stroke-linecap:round;stroke-linejoin:round;stroke-miterlimit:10;stroke-dasharray:none;stroke-opacity:1"
             id="path3182" /></g><g
           id="g3184"
           transform="translate(411.3076,287.0625)"><path
             d="m 0,0 h -51.766 c -0.091,14.217 -11.65,25.717 -25.883,25.717 -14.242,0 -25.8,-11.5 -25.892,-25.717 h -51.767"
             style="fill:none;stroke:#000000;stroke-width:15;stroke-linecap:round;stroke-linejoin:round;stroke-miterlimit:10;stroke-dasharray:none;stroke-opacity:1"
             id="path3186" /></g><g
           id="g3188"
           transform="translate(256,504.498)"><path
             d="M 0,0 V -31.062"
             style="fill:none;stroke:#000000;stroke-width:15;stroke-linecap:round;stroke-linejoin:round;stroke-miterlimit:10;stroke-dasharray:none;stroke-opacity:1"
             id="path3190" /></g><g
           id="g3192"
           transform="translate(380.2236,471.2124)"><path
             d="M 0,0 -15.531,-26.901"
             style="fill:none;stroke:#000000;stroke-width:15;stroke-linecap:round;stroke-linejoin:round;stroke-miterlimit:10;stroke-dasharray:none;stroke-opacity:1"
             id="path3194" /></g><g
           id="g3196"
           transform="translate(471.1611,380.2744)"><path
             d="M 0,0 -26.9,-15.531"
             style="fill:none;stroke:#000000;stroke-width:15;stroke-linecap:round;stroke-linejoin:round;stroke-miterlimit:10;stroke-dasharray:none;stroke-opacity:1"
             id="path3198" /></g><g
           id="g3200"
           transform="translate(67.7393,147.3589)"><path
             d="M 0,0 -26.9,-15.531"
             style="fill:none;stroke:#000000;stroke-width:15;stroke-linecap:round;stroke-linejoin:round;stroke-miterlimit:10;stroke-dasharray:none;stroke-opacity:1"
             id="path3202" /></g><g
           id="g3204"
           transform="translate(131.7764,471.2124)"><path
             d="M 0,0 15.531,-26.901"
             style="fill:none;stroke:#000000;stroke-width:15;stroke-linecap:round;stroke-linejoin:round;stroke-miterlimit:10;stroke-dasharray:none;stroke-opacity:1"
             id="path3206" /></g><g
           id="g3208"
           transform="translate(40.8389,380.2744)"><path
             d="M 0,0 26.9,-15.531"
             style="fill:none;stroke:#000000;stroke-width:15;stroke-linecap:round;stroke-linejoin:round;stroke-miterlimit:10;stroke-dasharray:none;stroke-opacity:1"
             id="path3210" /></g><g
           id="g3212"
           transform="translate(444.2607,147.3589)"><path
             d="M 0,0 26.9,-15.531"
             style="fill:none;stroke:#000000;stroke-width:15;stroke-linecap:round;stroke-linejoin:round;stroke-miterlimit:10;stroke-dasharray:none;stroke-opacity:1"
             id="path3214" /></g><g
           id="g3216"
           transform="translate(7.5527,256.0513)"><path
             d="M 0,0 H 31.062"
             style="fill:none;stroke:#000000;stroke-width:15;stroke-linecap:round;stroke-linejoin:round;stroke-miterlimit:10;stroke-dasharray:none;stroke-opacity:1"
             id="path3218" /></g><g
           id="g3220"
           transform="translate(473.3848,256.0513)"><path
             d="M 0,0 H 31.062"
             style="fill:none;stroke:#000000;stroke-width:15;stroke-linecap:round;stroke-linejoin:round;stroke-miterlimit:10;stroke-dasharray:none;stroke-opacity:1"
             id="path3222" /></g></g></g></g></svg>
