<?xml version="1.0" encoding="iso-8859-1"?>
<!-- Generator: Adobe Illustrator 19.0.0, SVG Export Plug-In . SVG Version: 6.00 Build 0)  -->
<svg version="1.1" id="Capa_1" xmlns="http://www.w3.org/2000/svg" xmlns:xlink="http://www.w3.org/1999/xlink" x="0px" y="0px"
	 viewBox="0 0 512.002 512.002" style="enable-background:new 0 0 512.002 512.002;" xml:space="preserve">
<path style="fill:#A45E43;" d="M413.501,107.5v90c24.853,0,45-20.147,45-45S438.354,107.5,413.501,107.5z"/>
<path style="fill:#C27749;" d="M428.501,152.5c0-24.853-6.716-45-15-45c-24.853,0-45,20.147-45,45s20.147,45,45,45
	C421.785,197.5,428.501,177.353,428.501,152.5z"/>
<path style="fill:#FF4128;" d="M413.501,277.5v90c24.853,0,45-20.147,45-45L413.501,277.5z"/>
<path style="fill:#FF6337;" d="M428.501,322.5l-15-45l-45,45c0,24.853,20.147,45,45,45C421.785,367.5,428.501,347.353,428.501,322.5
	z"/>
<path style="fill:#FF8646;" d="M438.501,227.5h-30l20,95h30v-75C458.501,236.454,449.547,227.5,438.501,227.5z"/>
<path style="fill:#FFA754;" d="M408.501,227.5h-20c-11.046,0-20,8.954-20,20v75h60v-75C428.501,236.454,419.547,227.5,408.501,227.5
	z"/>
<path style="fill:#FFFFFF;" d="M278.501,157.5L278.501,157.5L278.501,157.5z"/>
<path style="fill:#FFF0D3;" d="M278.501,37.5v120c33.137,0,60-26.863,60-60S311.638,37.5,278.501,37.5z"/>
<path style="fill:#FFFFFF;" d="M308.501,97.5c0-33.137-13.431-60-30-60c-28.664,0-52.618,20.106-58.567,46.98L188.501,97.5
	l31.433,13.02c5.949,26.874,29.903,46.98,58.567,46.98C295.07,157.5,308.501,130.637,308.501,97.5z"/>
<path style="fill:#FFB4A9;" d="M138.501,172.5h-10l-20,120h50v-100C158.501,181.454,149.547,172.5,138.501,172.5z"/>
<path style="fill:#FFF0D3;" d="M128.501,172.5h-40c-11.046,0-20,8.954-20,20v100h60V172.5z"/>
<path style="fill:#FFA754;" d="M158.501,262.5h-30l15,90h30v-50.335C173.501,286.954,167.83,273.075,158.501,262.5z"/>
<path style="fill:#FFCB63;" d="M128.501,262.5h-60c-9.329,10.575-15,24.454-15,39.665V352.5h90v-50.335
	C143.501,286.954,137.83,273.075,128.501,262.5z"/>
<circle style="fill:#FF8646;" cx="113.5" cy="30" r="22.5"/>
<path style="fill:#FFB4A9;" d="M147.756,68.335c0.01-0.01-34.255-0.005-34.255-0.005v74.17c24.85,0,45-20.15,45-45
	C158.501,86.38,154.456,76.185,147.756,68.335z"/>
<path style="fill:#FFD9D4;" d="M127.391,80.51L79.246,68.335c-6.7,7.85-10.745,18.045-10.745,29.165c0,24.85,20.15,45,45,45
	c8.28,0,15-20.15,15-45C128.501,91.49,128.111,85.75,127.391,80.51z"/>
<path style="fill:#FF6337;" d="M113.501,52.5l13.89,28.01c7.45-2.23,14.475-6.295,20.365-12.175
	C139.506,58.645,127.221,52.5,113.501,52.5z"/>
<path style="fill:#FF8646;" d="M113.501,52.5c-13.72,0-26.005,6.145-34.255,15.835c13.04,13.04,31.645,17.105,48.145,12.175
	C125.161,64.08,119.781,52.5,113.501,52.5z"/>
<path d="M438.501,220h-32.5v-15.544c2.451,0.352,4.953,0.544,7.5,0.544c28.948,0,52.5-23.551,52.5-52.5s-23.552-52.5-52.5-52.5
	s-52.5,23.551-52.5,52.5c0,20.901,12.279,38.982,30,47.424V220h-2.5c-15.163,0-27.5,12.336-27.5,27.5v31.21
	c-8.729-3.096-15-11.432-15-21.21v-60c0-4.142-3.357-7.5-7.5-7.5s-7.5,3.358-7.5,7.5v60c0,18.11,12.904,33.261,30,36.745V322.5
	c0,14.269,5.73,27.22,15,36.692v129.902l-24.872,8.291c-3.929,1.31-6.053,5.558-4.743,9.487c1.048,3.143,3.974,5.13,7.114,5.13
	c0.786,0,1.586-0.125,2.373-0.387l30-10c3.062-1.021,5.128-3.887,5.128-7.115V369.924c6.824,3.251,14.452,5.076,22.5,5.076
	s15.676-1.825,22.5-5.076v119.17l-24.872,8.291c-3.929,1.31-6.053,5.558-4.743,9.487c1.048,3.143,3.974,5.13,7.114,5.13
	c0.786,0,1.586-0.125,2.373-0.387l30-10c3.062-1.021,5.128-3.887,5.128-7.115V359.192c9.27-9.472,15-22.423,15-36.692v-75
	C466.001,232.336,453.664,220,438.501,220z M376.001,152.5c0-20.678,16.822-37.5,37.5-37.5s37.5,16.822,37.5,37.5
	s-16.822,37.5-37.5,37.5S376.001,173.178,376.001,152.5z M413.501,360c-18.11,0-33.261-12.904-36.745-30h73.491
	C446.762,347.096,431.611,360,413.501,360z M451.001,315h-75v-67.5c0-6.893,5.607-12.5,12.5-12.5h2.5v22.5
	c0,20.678,16.822,37.5,37.5,37.5c4.143,0,7.5-3.358,7.5-7.5s-3.357-7.5-7.5-7.5c-12.406,0-22.5-10.093-22.5-22.5V235h32.5
	c6.893,0,12.5,5.607,12.5,12.5V315z"/>
<path d="M336.641,63.215c-2.106-3.567-6.707-4.749-10.272-2.642s-4.749,6.706-2.642,10.272c4.759,8.055,7.274,17.272,7.274,26.655
	c0,28.949-23.552,52.5-52.5,52.5c-24.422,0-45.973-17.285-51.243-41.101c-0.529-2.39-2.191-4.372-4.453-5.309L208.1,97.5
	l14.705-6.091c2.262-0.937,3.924-2.918,4.452-5.309C232.528,62.285,254.08,45,278.501,45c9.384,0,18.601,2.515,26.654,7.274
	c3.569,2.107,8.166,0.924,10.272-2.642c2.107-3.566,0.925-8.166-2.642-10.272C302.423,33.237,290.567,30,278.501,30
	c-15.456,0-30.561,5.36-42.532,15.092c-10.754,8.743-18.6,20.667-22.377,33.896L185.631,90.57c-2.803,1.161-4.63,3.896-4.63,6.929
	c0,3.034,1.827,5.768,4.63,6.929l27.961,11.582c3.777,13.23,11.623,25.154,22.377,33.897C247.94,159.64,263.045,165,278.501,165
	c37.22,0,67.5-30.28,67.5-67.5C346.001,85.435,342.765,73.579,336.641,63.215z"/>
<path d="M297.818,94.539L285.43,64.63c-1.16-2.803-3.896-4.63-6.929-4.63s-5.769,1.827-6.929,4.63l-12.389,29.91
	c-0.014,0.033-0.027,0.066-0.041,0.099l-8.783,21.205c-1.586,3.827,0.231,8.214,4.059,9.799c3.824,1.584,8.214-0.231,9.799-4.059
	L271.086,105h14.83l6.869,16.583c1.196,2.888,3.988,4.632,6.932,4.632c0.956,0,1.929-0.184,2.867-0.573
	c3.827-1.585,5.645-5.973,4.059-9.799L297.86,94.64C297.846,94.606,297.833,94.572,297.818,94.539z"/>
<path d="M188.501,135c-4.143,0-7.5,3.358-7.5,7.5v60c0,9.777-6.271,18.114-15,21.21V192.5c0-15.164-12.337-27.5-27.5-27.5h-2.5
	v-20.076c17.721-8.442,30-26.523,30-47.424c0-12.812-4.619-24.561-12.271-33.685c-0.206-0.271-0.424-0.535-0.671-0.782
	c-4.78-5.463-10.623-9.916-17.222-13.032c4.762-5.312,7.665-12.323,7.665-20.001c0-16.542-13.458-30-30-30s-30,13.458-30,30
	c0,7.678,2.903,14.69,7.665,20.001c-6.599,3.116-12.442,7.569-17.192,13.004c-0.277,0.275-0.496,0.539-0.702,0.81
	C65.62,72.939,61.001,84.688,61.001,97.5c0,28.949,23.552,52.5,52.5,52.5c2.547,0,5.049-0.192,7.5-0.544V165h-32.5
	c-15.163,0-27.5,12.336-27.5,27.5v67.259c-9.693,11.989-15,26.935-15,42.406V352.5c0,4.142,3.357,7.5,7.5,7.5h22.5v134.5
	c0,3.228,2.065,6.094,5.128,7.115l30,10c0.787,0.262,1.587,0.387,2.373,0.387c3.141,0,6.066-1.988,7.114-5.13
	c1.31-3.93-0.814-8.177-4.743-9.487l-24.872-8.291V360h45v134.5c0,3.228,2.065,6.094,5.128,7.115l30,10
	c0.787,0.262,1.587,0.387,2.373,0.387c3.141,0,6.066-1.988,7.114-5.13c1.31-3.93-0.814-8.177-4.743-9.487l-24.872-8.291V360h22.5
	c4.143,0,7.5-3.358,7.5-7.5v-50.335c0-15.471-5.307-30.417-15-42.406v-20.513c17.096-3.484,30-18.635,30-36.745v-60
	C196.001,138.358,192.644,135,188.501,135z M113.501,15c8.271,0,15,6.729,15,15s-6.729,15-15,15s-15-6.729-15-15
	S105.229,15,113.501,15z M113.501,60c8.674,0,16.662,2.968,23.022,7.931c-13.839,9.42-32.206,9.42-46.044,0
	C96.839,62.968,104.827,60,113.501,60z M113.501,135c-20.678,0-37.5-16.822-37.5-37.5c0-6.567,1.702-12.742,4.68-18.116
	c9.751,7.072,21.284,10.615,32.82,10.615c11.536,0,23.069-3.542,32.82-10.615c2.978,5.374,4.68,11.549,4.68,18.116
	C151.001,118.178,134.179,135,113.501,135z M76.001,192.5c0-6.893,5.607-12.5,12.5-12.5h32.5v22.5c0,12.407-10.094,22.5-22.5,22.5
	c-4.143,0-7.5,3.358-7.5,7.5s3.357,7.5,7.5,7.5c20.678,0,37.5-16.822,37.5-37.5V180h2.5c6.893,0,12.5,5.607,12.5,12.5V255h-75
	C76.001,255,76.001,192.5,76.001,192.5z M166.001,345h-105v-42.835c0-11.686,3.905-22.982,11.038-32.165h82.924
	c7.133,9.183,11.038,20.478,11.038,32.165V345z"/>
<g>
</g>
<g>
</g>
<g>
</g>
<g>
</g>
<g>
</g>
<g>
</g>
<g>
</g>
<g>
</g>
<g>
</g>
<g>
</g>
<g>
</g>
<g>
</g>
<g>
</g>
<g>
</g>
<g>
</g>
</svg>
